<svg width="340" height="87" viewBox="0 0 340 87" fill="none" xmlns="http://www.w3.org/2000/svg">
<path d="M11.214 68.588C8.652 68.588 6.524 68.056 4.83 66.992C3.136 65.914 2.086 64.43 1.68 62.54L3.486 62.204C3.864 63.604 4.746 64.724 6.132 65.564C7.532 66.404 9.24 66.824 11.256 66.824C13.314 66.824 14.945 66.383 16.149 65.501C17.367 64.619 17.976 63.422 17.976 61.91C17.976 61.084 17.794 60.412 17.43 59.894C17.066 59.362 16.352 58.879 15.288 58.445C14.238 58.011 12.684 57.514 10.626 56.954C8.47 56.366 6.79 55.799 5.586 55.253C4.396 54.693 3.556 54.07 3.066 53.384C2.59 52.684 2.352 51.83 2.352 50.822C2.352 49.618 2.709 48.554 3.423 47.63C4.137 46.706 5.124 45.985 6.384 45.467C7.644 44.949 9.1 44.69 10.752 44.69C12.418 44.69 13.916 44.97 15.246 45.53C16.59 46.076 17.668 46.846 18.48 47.84C19.306 48.82 19.782 49.954 19.908 51.242L18.102 51.578C17.836 49.996 17.024 48.75 15.666 47.84C14.322 46.916 12.642 46.454 10.626 46.454C8.736 46.426 7.189 46.811 5.985 47.609C4.795 48.407 4.2 49.45 4.2 50.738C4.2 51.452 4.403 52.068 4.809 52.586C5.215 53.09 5.922 53.552 6.93 53.972C7.938 54.392 9.338 54.826 11.13 55.274C13.398 55.848 15.162 56.429 16.422 57.017C17.696 57.605 18.585 58.291 19.089 59.075C19.607 59.859 19.866 60.832 19.866 61.994C19.866 64.052 19.096 65.669 17.556 66.845C16.016 68.007 13.902 68.588 11.214 68.588ZM51.3522 68C50.2182 68.252 49.0982 68.343 47.9922 68.273C46.8862 68.217 45.8992 67.958 45.0312 67.496C44.1632 67.02 43.5122 66.306 43.0782 65.354C42.7422 64.612 42.5532 63.863 42.5112 63.107C42.4692 62.337 42.4482 61.462 42.4482 60.482V39.02H44.2122V60.482C44.2122 61.462 44.2192 62.253 44.2332 62.855C44.2612 63.457 44.4082 64.024 44.6742 64.556C45.1782 65.564 45.9762 66.187 47.0682 66.425C48.1602 66.649 49.5882 66.614 51.3522 66.32V68ZM37.1142 47.084V45.32H51.3522V47.084H37.1142ZM77.2623 68.63C75.4983 68.63 74.0353 68.322 72.8733 67.706C71.7113 67.09 70.8433 66.278 70.2693 65.27C69.6953 64.262 69.4083 63.17 69.4083 61.994C69.4083 60.664 69.6953 59.565 70.2693 58.697C70.8573 57.815 71.6203 57.122 72.5583 56.618C73.4963 56.114 74.5043 55.75 75.5823 55.526C76.8983 55.26 78.3053 55.029 79.8033 54.833C81.3153 54.623 82.7083 54.448 83.9823 54.308C85.2563 54.168 86.2083 54.056 86.8383 53.972L86.2083 54.392C86.2783 51.718 85.7883 49.73 84.7383 48.428C83.7023 47.112 81.8683 46.454 79.2363 46.454C77.3323 46.454 75.7993 46.881 74.6373 47.735C73.4893 48.575 72.6843 49.87 72.2223 51.62L70.2903 51.116C70.7943 49.016 71.8233 47.42 73.3773 46.328C74.9453 45.236 76.9263 44.69 79.3203 44.69C81.4203 44.69 83.1703 45.117 84.5703 45.971C85.9703 46.825 86.9223 47.98 87.4263 49.436C87.6223 49.996 87.7623 50.675 87.8463 51.473C87.9303 52.271 87.9723 53.048 87.9723 53.804V68H86.3343V61.784L87.1743 61.826C86.5723 63.982 85.3753 65.655 83.5833 66.845C81.7913 68.035 79.6843 68.63 77.2623 68.63ZM77.1783 66.866C78.8163 66.866 80.2583 66.572 81.5043 65.984C82.7643 65.396 83.7793 64.549 84.5493 63.443C85.3333 62.323 85.8303 60.986 86.0403 59.432C86.1523 58.648 86.2083 57.808 86.2083 56.912C86.2083 56.016 86.2083 55.372 86.2083 54.98L87.1323 55.694C86.3903 55.764 85.3613 55.862 84.0453 55.988C82.7433 56.1 81.3643 56.254 79.9083 56.45C78.4523 56.632 77.1363 56.87 75.9603 57.164C75.2743 57.332 74.5673 57.598 73.8393 57.962C73.1113 58.326 72.4953 58.837 71.9913 59.495C71.5013 60.153 71.2563 61 71.2563 62.036C71.2563 62.764 71.4383 63.499 71.8023 64.241C72.1663 64.983 72.7753 65.606 73.6293 66.11C74.4973 66.614 75.6803 66.866 77.1783 66.866ZM108.552 68V37.76H110.316V56.24L121.656 45.32H124.302L112.458 56.66L126.108 68H123.084L110.316 57.08V68H108.552ZM152.022 68.63C149.88 68.63 148.032 68.147 146.478 67.181C144.938 66.215 143.748 64.836 142.908 63.044C142.068 61.252 141.648 59.124 141.648 56.66C141.648 54.182 142.061 52.047 142.887 50.255C143.727 48.463 144.917 47.091 146.457 46.139C148.011 45.173 149.866 44.69 152.022 44.69C154.192 44.69 156.047 45.18 157.587 46.16C159.127 47.14 160.303 48.561 161.115 50.423C161.941 52.285 162.354 54.532 162.354 57.164H160.464V56.576C160.38 53.314 159.61 50.815 158.154 49.079C156.712 47.329 154.668 46.454 152.022 46.454C149.334 46.454 147.248 47.35 145.764 49.142C144.28 50.92 143.538 53.426 143.538 56.66C143.538 59.894 144.28 62.407 145.764 64.199C147.248 65.977 149.334 66.866 152.022 66.866C153.898 66.866 155.543 66.425 156.957 65.543C158.371 64.661 159.498 63.394 160.338 61.742L161.808 62.582C160.884 64.514 159.575 66.005 157.881 67.055C156.187 68.105 154.234 68.63 152.022 68.63ZM142.782 57.164V55.4H161.262V57.164H142.782ZM190.714 68.63C188.572 68.63 186.766 68.105 185.296 67.055C183.84 65.991 182.734 64.556 181.978 62.75C181.222 60.93 180.844 58.886 180.844 56.618C180.844 54.392 181.215 52.376 181.957 50.57C182.699 48.764 183.777 47.336 185.191 46.286C186.619 45.222 188.348 44.69 190.378 44.69C192.492 44.69 194.27 45.208 195.712 46.244C197.168 47.266 198.267 48.68 199.009 50.486C199.751 52.278 200.122 54.322 200.122 56.618C200.122 58.872 199.751 60.909 199.009 62.729C198.281 64.535 197.217 65.97 195.817 67.034C194.417 68.098 192.716 68.63 190.714 68.63ZM190.714 66.866C192.492 66.866 193.976 66.418 195.166 65.522C196.37 64.626 197.273 63.408 197.875 61.868C198.477 60.314 198.778 58.564 198.778 56.618C198.778 54.644 198.47 52.894 197.854 51.368C197.252 49.828 196.349 48.624 195.145 47.756C193.955 46.888 192.478 46.454 190.714 46.454C188.908 46.454 187.41 46.902 186.22 47.798C185.044 48.68 184.169 49.891 183.595 51.431C183.021 52.957 182.734 54.686 182.734 56.618C182.734 58.564 183.035 60.314 183.637 61.868C184.239 63.408 185.128 64.626 186.304 65.522C187.494 66.418 188.964 66.866 190.714 66.866ZM198.778 68V50.15H198.652V37.76H200.416V68H198.778ZM223.604 68V21.92H232.308V68H223.604ZM268.077 68.96C263.469 68.96 259.491 67.9573 256.141 65.952C252.813 63.9467 250.243 61.1413 248.429 57.536C246.637 53.9307 245.741 49.7387 245.741 44.96C245.741 40.1813 246.637 35.9893 248.429 32.384C250.243 28.7787 252.813 25.9733 256.141 23.968C259.491 21.9627 263.469 20.96 268.077 20.96C273.368 20.96 277.805 22.272 281.389 24.896C284.995 27.52 287.533 31.072 289.005 35.552L280.237 37.984C279.384 35.1893 277.944 33.024 275.917 31.488C273.891 29.9307 271.277 29.152 268.077 29.152C265.155 29.152 262.712 29.8027 260.749 31.104C258.808 32.4053 257.347 34.24 256.365 36.608C255.384 38.976 254.893 41.76 254.893 44.96C254.893 48.16 255.384 50.944 256.365 53.312C257.347 55.68 258.808 57.5147 260.749 58.816C262.712 60.1173 265.155 60.768 268.077 60.768C271.277 60.768 273.891 59.9893 275.917 58.432C277.944 56.8747 279.384 54.7093 280.237 51.936L289.005 54.368C287.533 58.848 284.995 62.4 281.389 65.024C277.805 67.648 273.368 68.96 268.077 68.96ZM302.451 68V21.92H321.907C322.355 21.92 322.952 21.9413 323.699 21.984C324.467 22.0053 325.15 22.0693 325.747 22.176C328.499 22.6027 330.75 23.5093 332.499 24.896C334.27 26.2827 335.571 28.032 336.403 30.144C337.235 32.2347 337.651 34.5707 337.651 37.152C337.651 39.7333 337.224 42.08 336.371 44.192C335.539 46.2827 334.238 48.0213 332.467 49.408C330.718 50.7947 328.478 51.7013 325.747 52.128C325.15 52.2133 324.467 52.2773 323.699 52.32C322.931 52.3627 322.334 52.384 321.907 52.384H311.155V68H302.451ZM311.155 44.256H321.523C321.971 44.256 322.462 44.2347 322.995 44.192C323.528 44.1493 324.019 44.064 324.467 43.936C325.64 43.616 326.547 43.0827 327.187 42.336C327.827 41.568 328.264 40.7253 328.499 39.808C328.755 38.8693 328.883 37.984 328.883 37.152C328.883 36.32 328.755 35.4453 328.499 34.528C328.264 33.5893 327.827 32.7467 327.187 32C326.547 31.232 325.64 30.688 324.467 30.368C324.019 30.24 323.528 30.1547 322.995 30.112C322.462 30.0693 321.971 30.048 321.523 30.048H311.155V44.256Z" fill="black"/>
</svg>
